<?xml version="1.0" encoding="UTF-8"?>
<svg version="1.1" xmlns="http://www.w3.org/2000/svg" width="225" height="225">
<path d="M0 0 C0.73121063 -0.0023465 1.46242126 -0.00469299 2.21578979 -0.0071106 C15.34094689 0.01027229 27.04107943 1.80455427 39.375 6.5 C40.13071289 6.78327148 40.88642578 7.06654297 41.66503906 7.35839844 C69.85223113 18.19389764 92.16445346 39.97210832 104.6875 67.3125 C108.12545838 75.78042589 110.23323253 84.632754 112.375 93.5 C112.55458252 94.11020996 112.73416504 94.72041992 112.91918945 95.34912109 C116.46149179 112.06453812 114.00304229 132.63053577 108.375 148.5 C108.11799316 149.24378906 107.86098633 149.98757812 107.59619141 150.75390625 C97.35201985 179.6815853 75.79915951 202.28464262 48.375 215.6875 C22.13489418 227.69069987 -8.02655752 230.32410789 -35.46484375 220.5546875 C-64.27482552 209.38292878 -88.0113215 189.28334497 -101.875 161.375 C-113.7987829 134.13034507 -116.20316046 102.47813131 -105.625 74.5 C-105.34172852 73.74283691 -105.05845703 72.98567383 -104.76660156 72.20556641 C-93.70812109 43.44465013 -72.32833854 22.24760672 -44.7578125 9.25390625 C-38.57931039 6.51466156 -32.10383133 4.65283483 -25.56005859 3.00292969 C-23.72456404 2.5258771 -21.91163899 1.96433725 -20.1015625 1.3984375 C-13.55375987 -0.20904008 -6.70531783 0.01364495 0 0 Z " fill="#EFEEFE" transform="translate(111.625,-0.5)"/>
<path d="M0 0 C3.46647893 1.07446261 6.45043756 2.12411771 9.4375 4.1875 C13.80921768 6.41170724 15.32052851 6.34832229 20 5 C22.67305568 3.76814 25.2741646 2.45822342 27.86328125 1.05859375 C30 0 30 0 32 0 C31.7628125 1.2065625 31.525625 2.413125 31.28125 3.65625 C29.45954201 12.51959309 29.45954201 12.51959309 31.578125 20.94140625 C34.19274304 23.49489113 36.73870082 25.36935041 40 27 C40 27.66 40 28.32 40 29 C40.66 29 41.32 29 42 29 C42 29.66 42 30.32 42 31 C33.09 31.99 33.09 31.99 24 33 C24.63941744 36.0805106 24.63941744 36.0805106 26.8125 36.9375 C27.534375 37.288125 28.25625 37.63875 29 38 C31.3125 39.875 31.3125 39.875 33 42 C32.875 44.01953125 32.875 44.01953125 32 46 C30.07421875 47.08203125 30.07421875 47.08203125 27.6875 47.8125 C26.90761719 48.06644531 26.12773438 48.32039063 25.32421875 48.58203125 C22.79981506 49.03599964 21.44195257 48.63851455 19 48 C16.81296615 48.37907282 16.81296615 48.37907282 15 49 C13.82845707 46.71070947 12.66261926 44.41881638 11.5 42.125 C11.16613281 41.47402344 10.83226563 40.82304688 10.48828125 40.15234375 C8 35.2265625 8 35.2265625 8 33 C2.06 32.34 -3.88 31.68 -10 31 C-7.84093789 26.68187577 -6.59638648 25.9858154 -2.75 23.375 C-0.03655272 21.06973605 1.8196776 19.46061141 2.26855469 15.82470703 C2.14026761 10.44860861 1.14229306 5.24210728 0 0 Z " fill="#868BEB" transform="translate(57,66)"/>
<path d="M0 0 C1.07585609 -0.00525696 1.07585609 -0.00525696 2.17344666 -0.01062012 C4.55070601 -0.01944171 6.92766911 -0.01358628 9.30493164 -0.00683594 C10.95398516 -0.00818262 12.6030383 -0.01012317 14.25209045 -0.01263428 C17.71139295 -0.01558624 21.17059229 -0.01128618 24.62988281 -0.00195312 C29.06654304 0.00943257 33.50296108 0.00288806 37.93961239 -0.00909805 C41.34621508 -0.01632235 44.75276029 -0.01402595 48.1593647 -0.00884247 C49.79525341 -0.00750709 51.43114731 -0.00914981 53.06702995 -0.01380157 C55.35342111 -0.0188752 57.63941938 -0.01114463 59.92578125 0 C61.22768906 0.00159119 62.52959686 0.00318237 63.87095642 0.00482178 C67.02758789 0.25878906 67.02758789 0.25878906 70.02758789 2.25878906 C70.34008789 4.75878906 70.34008789 4.75878906 70.02758789 7.25878906 C67.59018928 9.69618768 66.29280546 9.49696603 62.96679688 9.51873779 C61.91395508 9.51030853 61.91395508 9.51030853 60.83984375 9.50170898 C60.09988663 9.50360733 59.3599295 9.50550568 58.59754944 9.50746155 C56.14573657 9.51117368 53.69421829 9.50045996 51.24243164 9.48925781 C49.5437473 9.48806625 47.8450623 9.4876128 46.14637756 9.48786926 C42.58452232 9.4863037 39.02276749 9.47800781 35.4609375 9.46459961 C30.88513202 9.44759675 26.30943685 9.44378559 21.73360348 9.44454479 C18.22586505 9.44427347 14.71815096 9.43879861 11.21042061 9.43154335 C9.52264147 9.4283515 7.83485956 9.42638808 6.14707756 9.42564964 C3.79331596 9.42349224 1.43967366 9.41476153 -0.9140625 9.40405273 C-1.96994064 9.40473251 -1.96994064 9.40473251 -3.04714966 9.40542603 C-7.85793693 9.37326424 -7.85793693 9.37326424 -8.97241211 8.25878906 C-9.15991211 5.32128906 -9.15991211 5.32128906 -8.97241211 2.25878906 C-6.08817133 -0.62545172 -4.03833082 0.00493865 0 0 Z " fill="#868AE8" transform="translate(102.972412109375,133.7412109375)"/>
<path d="M0 0 C0.70894409 -0.00335861 1.41788818 -0.00671722 2.14831543 -0.01017761 C4.50327279 -0.01971449 6.85815927 -0.02163209 9.21313477 -0.02270508 C10.84359263 -0.02591578 12.4740502 -0.0292797 14.10450745 -0.03279114 C17.52687244 -0.03878927 20.94921215 -0.04063034 24.37158203 -0.04003906 C28.76463334 -0.0399374 33.15752315 -0.05359026 37.55053616 -0.07081127 C40.91934458 -0.08191056 44.28811371 -0.08395891 47.65693855 -0.08342934 C49.27691263 -0.08461256 50.89688762 -0.0890534 52.5168438 -0.0967617 C54.77957456 -0.10652 57.04195147 -0.10370026 59.3046875 -0.09765625 C60.59406723 -0.09908127 61.88344696 -0.10050629 63.2118988 -0.10197449 C66.21704102 0.14526367 66.21704102 0.14526367 68.21704102 2.14526367 C67.96704102 5.20776367 67.96704102 5.20776367 67.21704102 8.14526367 C64.31236248 9.59760294 61.7647358 9.28864154 58.52001953 9.30639648 C57.4880545 9.31384384 57.4880545 9.31384384 56.4352417 9.32144165 C54.15546679 9.33606749 51.87576142 9.34286541 49.59594727 9.34838867 C48.01415504 9.35413913 46.43236285 9.35989688 44.85057068 9.36566162 C41.5325386 9.37617236 38.21453076 9.38201476 34.89648438 9.38549805 C30.6413705 9.39098747 26.38657587 9.41502448 22.13156223 9.44347 C18.86393796 9.46207644 15.59639096 9.46730087 12.32871819 9.46883392 C10.75979807 9.47186477 9.19087944 9.47990782 7.62201118 9.4930191 C5.42891114 9.51004098 3.23659601 9.5082095 1.04345703 9.50170898 C-0.2051561 9.50535461 -1.45376923 9.50900024 -2.74021912 9.51275635 C-5.78295898 9.14526367 -5.78295898 9.14526367 -7.72523499 7.78704834 C-8.78295898 6.14526367 -8.78295898 6.14526367 -8.53295898 3.52026367 C-7.06705863 -1.12175413 -4.55214589 0.01346583 0 0 Z " fill="#2F37D3" transform="translate(93.782958984375,148.854736328125)"/>
<path d="M0 0 C0.70909012 -0.00350464 1.41818024 -0.00700928 2.14875793 -0.01062012 C4.49835937 -0.01944014 6.84766099 -0.01358746 9.19726562 -0.00683594 C10.82629454 -0.00818251 12.45532305 -0.01012298 14.08435059 -0.01263428 C17.50077129 -0.0155859 20.91708752 -0.0112867 24.33349609 -0.00195312 C28.71868964 0.00944148 33.10363838 0.00288221 37.48882294 -0.00909805 C40.85335138 -0.01631564 44.21782152 -0.0140292 47.58235168 -0.00884247 C49.1995293 -0.00750569 50.81671217 -0.00915468 52.43388367 -0.01380157 C54.69174272 -0.01886522 56.94920206 -0.0111592 59.20703125 0 C61.13657654 0.00238678 61.13657654 0.00238678 63.10510254 0.00482178 C66.10351562 0.25878906 66.10351562 0.25878906 68.10351562 2.25878906 C67.77380083 5.55593699 67.48083173 6.88147296 65.10351562 9.25878906 C62.1877594 9.51275635 62.1877594 9.51275635 58.40649414 9.51757812 C57.71851746 9.52108276 57.03054077 9.5245874 56.32171631 9.52819824 C54.04184959 9.53701852 51.76229189 9.53116488 49.48242188 9.52441406 C47.90062907 9.52576079 46.31883667 9.52770138 44.73704529 9.5302124 C41.4189765 9.53316419 38.10101528 9.5288649 34.78295898 9.51953125 C30.52789765 9.50814593 26.27308887 9.51468991 22.01803684 9.52667618 C18.75040279 9.53390128 15.48282865 9.5316037 12.21519279 9.52642059 C10.64629016 9.52508541 9.0773821 9.52672723 7.50848579 9.5313797 C5.31548778 9.53645463 3.12289914 9.52872099 0.92993164 9.51757812 C-0.31868149 9.51598694 -1.56729462 9.51439575 -2.85374451 9.51275635 C-5.89648438 9.25878906 -5.89648438 9.25878906 -8.89648438 7.25878906 C-9.20898438 4.75878906 -9.20898438 4.75878906 -8.89648438 2.25878906 C-6.02463171 -0.6130636 -4.02156793 0.00497454 0 0 Z " fill="#313AE0" transform="translate(74.896484375,119.7412109375)"/>
<path d="M0 0 C3.49847439 1.02394372 6.40449322 2.20438018 9.4375 4.1875 C13.80921768 6.41170724 15.32052851 6.34832229 20 5 C22.67305568 3.76814 25.2741646 2.45822342 27.86328125 1.05859375 C30 0 30 0 32 0 C31.7628125 1.2065625 31.525625 2.413125 31.28125 3.65625 C29.45954201 12.51959309 29.45954201 12.51959309 31.578125 20.94140625 C34.19274304 23.49489113 36.73870082 25.36935041 40 27 C40 27.66 40 28.32 40 29 C40.66 29 41.32 29 42 29 C42 29.66 42 30.32 42 31 C33.09 31.99 33.09 31.99 24 33 C23.67 32.34 23.34 31.68 23 31 C23.66 31 24.32 31 25 31 C25 30.01 25 29.02 25 28 C25.66 28 26.32 28 27 28 C27 28.99 27 29.98 27 31 C27.99 30.67 28.98 30.34 30 30 C30 29.34 30 28.68 30 28 C29.34 27.67 28.68 27.34 28 27 C28.66 26.67 29.32 26.34 30 26 C29.67 25.01 29.34 24.02 29 23 C28.236875 23.66 27.47375 24.32 26.6875 25 C24 27 24 27 21 27 C21 27.66 21 28.32 21 29 C19.68 29 18.36 29 17 29 C17.33 27.35 17.66 25.7 18 24 C18.99 23.67 19.98 23.34 21 23 C20.34 22.01 19.68 21.02 19 20 C19 19.01 19 18.02 19 17 C17.68 17.33 16.36 17.66 15 18 C15 17.34 15 16.68 15 16 C13.39125 16.2475 13.39125 16.2475 11.75 16.5 C8 17 8 17 4 17 C3.67 14.69 3.34 12.38 3 10 C2.34 10 1.68 10 1 10 C0.67 6.7 0.34 3.4 0 0 Z " fill="#858AEB" transform="translate(57,66)"/>
<path d="M0 0 C3.125 0.25 3.125 0.25 4.9375 1.4375 C6.39137476 3.656572 6.64829462 5.66217079 7.125 8.25 C8.115 8.745 8.115 8.745 9.125 9.25 C9.167721 10.91611905 9.16563832 12.58382885 9.125 14.25 C8.125 15.25 8.125 15.25 5.61302185 15.37025452 C4.49605423 15.36803391 3.37908661 15.36581329 2.22827148 15.36352539 C0.96703964 15.36344986 -0.2941922 15.36337433 -1.59364319 15.36329651 C-2.98039794 15.3581891 -4.36715229 15.35297309 -5.75390625 15.34765625 C-7.16495209 15.34579201 -8.57599857 15.34436814 -9.98704529 15.34336853 C-13.70740535 15.33954379 -17.4277266 15.3297139 -21.14807129 15.31866455 C-24.94180781 15.30844948 -28.73555058 15.30387071 -32.52929688 15.29882812 C-39.97788231 15.28809158 -47.42643572 15.2710157 -54.875 15.25 C-54.875 14.59 -54.875 13.93 -54.875 13.25 C-55.535 12.59 -56.195 11.93 -56.875 11.25 C-51.39863053 10.33604949 -46.09313512 10.0878864 -40.546875 10.0390625 C-38.76040699 10.01102691 -36.97394874 9.98236275 -35.1875 9.953125 C-32.39387958 9.91169419 -29.60044864 9.87477031 -26.80664062 9.84863281 C-24.09467955 9.82111466 -21.38352663 9.7752897 -18.671875 9.7265625 C-17.83436707 9.72330963 -16.99685913 9.72005676 -16.13397217 9.71670532 C-11.69026922 9.6220838 -9.91364499 9.35242918 -6.875 6.25 C-5.885 6.25 -4.895 6.25 -3.875 6.25 C-3.895625 5.445625 -3.91625 4.64125 -3.9375 3.8125 C-3.8488158 0.17644764 -3.65136495 0.31751 0 0 Z " fill="#EDEDFE" transform="translate(149.875,118.75)"/>
<path d="M0 0 C0.83334366 0.00404846 1.66668732 0.00809692 2.52528381 0.01226807 C3.80883507 0.00939789 3.80883507 0.00939789 5.11831665 0.00646973 C6.92983799 0.00510749 8.74136907 0.00880664 10.5528717 0.01715088 C13.32710217 0.02783688 16.10068313 0.01726378 18.87489319 0.00445557 C20.63335816 0.00577741 22.39182273 0.00834032 24.15028381 0.01226807 C24.98160324 0.0082196 25.81292267 0.00417114 26.66943359 0 C30.58963337 0.03192524 32.56955179 0.05480088 35.90419006 2.27789307 C36.27919006 5.27789307 36.27919006 5.27789307 35.90419006 8.27789307 C32.05199847 10.8460208 28.86942124 10.56593792 24.40419006 10.54351807 C23.57210022 10.54543152 22.74001038 10.54734497 21.88270569 10.54931641 C20.12423907 10.55067681 18.36576236 10.54699045 16.60731506 10.53863525 C13.91437744 10.52793355 11.22210692 10.53853527 8.52919006 10.55133057 C6.82085526 10.55000895 5.11252086 10.5474465 3.40419006 10.54351807 C2.59788147 10.54756653 1.79157288 10.55161499 0.96083069 10.55578613 C-2.91055686 10.52328226 -4.8004742 10.47478356 -8.09580994 8.27789307 C-8.40830994 5.27789307 -8.40830994 5.27789307 -8.09580994 2.27789307 C-5.46878414 -0.34913273 -3.57666563 0.02924666 0 0 Z " fill="#8B90EA" transform="translate(114.09580993652344,89.72210693359375)"/>
<path d="M0 0 C0.88022827 0.00091141 1.76045654 0.00182281 2.6673584 0.00276184 C3.569823 -0.00152328 4.4722876 -0.00580841 5.40209961 -0.01022339 C7.31196248 -0.01597164 9.22184726 -0.01646332 11.13171387 -0.01213074 C14.06194173 -0.0089695 16.99116164 -0.0324279 19.92126465 -0.05778503 C21.77412795 -0.06005776 23.62699398 -0.06076165 25.4798584 -0.05973816 C26.36008667 -0.06894791 27.24031494 -0.07815765 28.1472168 -0.08764648 C30.61462402 -0.06877136 30.61462402 -0.06877136 34.5736084 0.30354309 C36.5736084 3.30354309 36.5736084 3.30354309 36.2611084 5.92854309 C35.5736084 8.30354309 35.5736084 8.30354309 34.5736084 9.30354309 C31.5672259 9.41711033 28.58468398 9.46773221 25.57751465 9.47151184 C24.22169533 9.47650444 24.22169533 9.47650444 22.83848572 9.4815979 C20.92264313 9.48667105 19.00679168 9.48900611 17.09094238 9.48884583 C14.15207421 9.49103122 11.21358188 9.50917974 8.27478027 9.52815247 C6.41735969 9.53108646 4.55993731 9.53307122 2.70251465 9.53401184 C1.81914932 9.54119736 0.935784 9.54838287 0.02565002 9.55578613 C-6.19757021 9.53236448 -6.19757021 9.53236448 -8.4263916 7.30354309 C-8.6763916 4.80354309 -8.6763916 4.80354309 -8.4263916 2.30354309 C-5.74010759 -0.38274092 -3.65225689 0.04275542 0 0 Z " fill="#3038D6" transform="translate(100.4263916015625,104.69645690917969)"/>
<path d="M0 0 C2.06111655 -0.00972913 4.12124547 -0.04076418 6.18212891 -0.07226562 C7.47505859 -0.07742187 8.76798828 -0.08257812 10.10009766 -0.08789062 C11.29183594 -0.09723633 12.48357422 -0.10658203 13.71142578 -0.11621094 C14.654375 0.00141602 15.59732422 0.11904297 16.56884766 0.24023438 C18.56884766 3.24023438 18.56884766 3.24023438 18.31884766 5.30273438 C17.56884766 7.24023438 17.56884766 7.24023438 15.56884766 9.24023438 C12.80322266 9.49902344 12.80322266 9.49902344 9.31884766 9.50585938 C7.44712891 9.50972656 7.44712891 9.50972656 5.53759766 9.51367188 C3.57306641 9.50207031 3.57306641 9.50207031 1.56884766 9.49023438 C0.25916016 9.49796875 -1.05052734 9.50570312 -2.39990234 9.51367188 C-3.64771484 9.51109375 -4.89552734 9.50851563 -6.18115234 9.50585938 C-7.90591797 9.50247559 -7.90591797 9.50247559 -9.66552734 9.49902344 C-12.43115234 9.24023438 -12.43115234 9.24023438 -14.43115234 7.24023438 C-14.55615234 4.11523438 -14.55615234 4.11523438 -14.43115234 1.24023438 C-10.1964206 -0.8771315 -4.65843845 0.01335115 0 0 Z " fill="#343BD7" transform="translate(108.43115234375,75.759765625)"/>
<path d="M0 0 C0.99 0.495 0.99 0.495 2 1 C1.25 5.75 1.25 5.75 -1 8 C-3.91575623 8.25396729 -3.91575623 8.25396729 -7.69702148 8.25878906 C-8.38499817 8.2622937 -9.07297485 8.26579834 -9.78179932 8.26940918 C-12.06166603 8.27822946 -14.34122373 8.27237582 -16.62109375 8.265625 C-18.20288655 8.26697172 -19.78467895 8.26891232 -21.36647034 8.27142334 C-24.68453912 8.27437513 -28.00250034 8.27007584 -31.32055664 8.26074219 C-35.57561797 8.24935686 -39.83042676 8.25590085 -44.08547878 8.26788712 C-47.35311284 8.27511222 -50.62068698 8.27281464 -53.88832283 8.26763153 C-55.45722547 8.26629635 -57.02613352 8.26793816 -58.59502983 8.27259064 C-60.78802784 8.27766556 -62.98061648 8.26993193 -65.17358398 8.25878906 C-66.42219711 8.25719788 -67.67081024 8.25560669 -68.95726013 8.25396729 C-72 8 -72 8 -75 6 C-75.1875 3.375 -75.1875 3.375 -75 1 C-74.34 2.32 -73.68 3.64 -73 5 C-49.24 5.33 -25.48 5.66 -1 6 C-1.495 4.515 -1.495 4.515 -2 3 C-1.34 3 -0.68 3 0 3 C0 2.01 0 1.02 0 0 Z " fill="#484CC9" transform="translate(141,121)"/>
<path d="M0 0 C7.45762712 4.74576271 7.45762712 4.74576271 10 8 C9.8671875 10.01171875 9.8671875 10.01171875 9 12 C7.07421875 13.08203125 7.07421875 13.08203125 4.6875 13.8125 C3.90761719 14.06644531 3.12773438 14.32039063 2.32421875 14.58203125 C-0.18147912 15.03263574 -1.60014544 14.75219322 -4 14 C-4.66 14 -5.32 14 -6 14 C-4.50829734 9.0276578 -2.39542583 4.58154261 0 0 Z " fill="#E6E7FD" transform="translate(80,100)"/>
<path d="M0 0 C0 0.99 0 1.98 0 3 C-20.13 3 -40.26 3 -61 3 C-61 2.67 -61 2.34 -61 2 C-55.47049918 0.86442596 -50.03499179 0.78023923 -44.4140625 0.68359375 C-42.89043594 0.6524221 -42.89043594 0.6524221 -41.33602905 0.62062073 C-38.09908507 0.55549041 -34.86206074 0.49650892 -31.625 0.4375 C-29.4557215 0.39426341 -27.28645051 0.35064754 -25.1171875 0.30664062 C-8.19368242 -0.02830392 -8.19368242 -0.02830392 0 0 Z " fill="#303BEA" transform="translate(152,154)"/>
<path d="M0 0 C14.85 0.495 14.85 0.495 30 1 C30 1.33 30 1.66 30 2 C20.43 2.33 10.86 2.66 1 3 C1.66 5.97 2.32 8.94 3 12 C1.02 12.66 -0.96 13.32 -3 14 C-5.0625 12.25 -5.0625 12.25 -7 10 C-6.82246387 6.98188578 -6.16264785 6.16264785 -4 4 C-3.01 4 -2.02 4 -1 4 C-0.67 2.68 -0.34 1.36 0 0 Z " fill="#D6D8FB" transform="translate(93,74)"/>
<path d="M0 0 C0.763125 0.20625 1.52625 0.4125 2.3125 0.625 C2.6425 2.935 2.9725 5.245 3.3125 7.625 C0.3125 9.625 0.3125 9.625 -2.3125 9.3125 C-4.6875 8.625 -4.6875 8.625 -5.6875 7.625 C-5.9375 4.6875 -5.9375 4.6875 -5.6875 1.625 C-2.6875 -0.375 -2.6875 -0.375 0 0 Z " fill="#4244C0" transform="translate(152.6875,119.375)"/>
<path d="M0 0 C0.12375 0.5775 0.2475 1.155 0.375 1.75 C1.00648824 4.02335767 1.88858191 5.9253529 3 8 C1.68 8 0.36 8 -1 8 C-1.33 9.32 -1.66 10.64 -2 12 C-2.66 12 -3.32 12 -4 12 C-4.33 10.68 -4.66 9.36 -5 8 C-6.32 7.67 -7.64 7.34 -9 7 C-8.34 5.02 -7.68 3.04 -7 1 C-3.535 0.505 -3.535 0.505 0 0 Z " fill="#E7EAFE" transform="translate(76,82)"/>
<path d="M0 0 C-0.66 4.95 -1.32 9.9 -2 15 C-2.66 15 -3.32 15 -4 15 C-3.44687265 10.97007218 -2.8441938 6.97977076 -2 3 C-2.79664062 3.45052734 -2.79664062 3.45052734 -3.609375 3.91015625 C-4.31578125 4.29042969 -5.0221875 4.67070313 -5.75 5.0625 C-6.79414062 5.63677734 -6.79414062 5.63677734 -7.859375 6.22265625 C-10.36140628 7.1312406 -11.5332355 6.88336837 -14 6 C-12.04414675 4.99515796 -10.08523763 3.99626195 -8.125 3 C-6.48917969 2.1646875 -6.48917969 2.1646875 -4.8203125 1.3125 C-2 0 -2 0 0 0 Z " fill="#8A8DDD" transform="translate(89,66)"/>
<path d="M0 0 C1.67542976 0.28604898 3.34385343 0.61781233 5 1 C5.625 2.875 5.625 2.875 6 5 C5.34 5.66 4.68 6.32 4 7 C1.375 6.625 1.375 6.625 -1 6 C-1.042721 4.33388095 -1.04063832 2.66617115 -1 1 C-0.67 0.67 -0.34 0.34 0 0 Z " fill="#3137B8" transform="translate(84,106)"/>
<path d="M0 0 C1.2065625 0.0309375 1.2065625 0.0309375 2.4375 0.0625 C3.0625 2.4375 3.0625 2.4375 3.4375 5.0625 C2.7775 5.7225 2.1175 6.3825 1.4375 7.0625 C-0.6875 6.6875 -0.6875 6.6875 -2.5625 6.0625 C-2.94468767 4.40635343 -3.27645102 2.73792976 -3.5625 1.0625 C-2.5625 0.0625 -2.5625 0.0625 0 0 Z " fill="#363BB8" transform="translate(132.5625,76.9375)"/>
<path d="M0 0 C1.5625 1.1875 1.5625 1.1875 3 3 C2.8125 5.625 2.8125 5.625 2 8 C-0.6666419 9.33332095 -2.16680303 8.67102033 -5 8 C-4.67 6.35 -4.34 4.7 -4 3 C-3.34 3 -2.68 3 -2 3 C-2 3.99 -2 4.98 -2 6 C-1.01 6 -0.02 6 1 6 C1 4.68 1 3.36 1 2 C-0.65 2 -2.3 2 -4 2 C-2.68 1.34 -1.36 0.68 0 0 Z " fill="#3A41D4" transform="translate(134,105)"/>
<path d="M0 0 C1.65 0 3.3 0 5 0 C5 1.98 5 3.96 5 6 C5.66 6 6.32 6 7 6 C7 7.65 7 9.3 7 11 C6.34 11 5.68 11 5 11 C3.35 7.37 1.7 3.74 0 0 Z " fill="#8E90E3" transform="translate(67,104)"/>
<path d="M0 0 C1.2065625 0.0309375 1.2065625 0.0309375 2.4375 0.0625 C2.4375 2.0425 2.4375 4.0225 2.4375 6.0625 C0.7875 6.0625 -0.8625 6.0625 -2.5625 6.0625 C-2.94468767 4.40635343 -3.27645102 2.73792976 -3.5625 1.0625 C-2.5625 0.0625 -2.5625 0.0625 0 0 Z " fill="#343AE5" transform="translate(151.5625,120.9375)"/>
<path d="M0 0 C5.47932789 1.54545146 10.11429181 4.15543212 15 7 C12 8 12 8 9.73828125 7.00390625 C8.93777344 6.52824219 8.13726562 6.05257812 7.3125 5.5625 C6.50425781 5.08941406 5.69601563 4.61632812 4.86328125 4.12890625 C4.24839844 3.75636719 3.63351563 3.38382812 3 3 C2.67 4.98 2.34 6.96 2 9 C1.67 9 1.34 9 1 9 C0.67 6.03 0.34 3.06 0 0 Z " fill="#8B8DD5" transform="translate(57,66)"/>
<path d="M0 0 C0.33 0 0.66 0 1 0 C1.04254356 1.99954746 1.04080783 4.00041636 1 6 C0 7 0 7 -3.81640625 7.09765625 C-5.39846682 7.09098089 -6.98051159 7.07901875 -8.5625 7.0625 C-9.36880859 7.05798828 -10.17511719 7.05347656 -11.00585938 7.04882812 C-13.00393756 7.03700518 -15.00197783 7.01906914 -17 7 C-17 6.67 -17 6.34 -17 6 C-12.05 5.67 -7.1 5.34 -2 5 C-1.34 3.35 -0.68 1.7 0 0 Z " fill="#8789D9" transform="translate(149,92)"/>
<path d="M0 0 C2.46278801 2.46278801 2.99771255 4.70676982 4 8 C1 9 1 9 -1.1875 8.0625 C-1.785625 7.711875 -2.38375 7.36125 -3 7 C-2.34 6.34 -1.68 5.68 -1 5 C-0.35232207 2.42938689 -0.35232207 2.42938689 0 0 Z " fill="#DEE5FE" transform="translate(127,77)"/>
<path d="M0 0 C1.65 0.33 3.3 0.66 5 1 C5 1.99 5 2.98 5 4 C3.02 4 1.04 4 -1 4 C-0.67 2.68 -0.34 1.36 0 0 Z " fill="#3E41DA" transform="translate(85,107)"/>
<path d="M0 0 C0.66 0 1.32 0 2 0 C2 0.66 2 1.32 2 2 C2.66 2 3.32 2 4 2 C4 2.66 4 3.32 4 4 C-0.455 4.495 -0.455 4.495 -5 5 C-4 3 -4 3 -1 2 C-0.67 1.34 -0.34 0.68 0 0 Z " fill="#9395DB" transform="translate(95,93)"/>
<path d="M0 0 C0.33 1.32 0.66 2.64 1 4 C-0.98 4.99 -0.98 4.99 -3 6 C-3.66 5.01 -4.32 4.02 -5 3 C-3.35 2.01 -1.7 1.02 0 0 Z " fill="#DBDFFD" transform="translate(76,82)"/>
<path d="M0 0 C0.33 0.66 0.66 1.32 1 2 C0.67 2.66 0.34 3.32 0 4 C0.66 4.33 1.32 4.66 2 5 C0.02 5.33 -1.96 5.66 -4 6 C-2.84826645 3.53199953 -1.95216435 1.95216435 0 0 Z " fill="#9596E0" transform="translate(51,91)"/>
<path d="M0 0 C1.98 0.495 1.98 0.495 4 1 C3.67 2.32 3.34 3.64 3 5 C1.68 4.34 0.36 3.68 -1 3 C-0.67 2.01 -0.34 1.02 0 0 Z " fill="#343BE7" transform="translate(131,78)"/>
</svg>
